<svg width="126" height="38" viewBox="0 0 126 38" fill="none" xmlns="http://www.w3.org/2000/svg">
<path d="M21.5325 15.993C26.8302 21.2906 29.8847 26.8252 28.3552 28.3548C26.8256 29.8843 21.291 26.8298 15.9934 21.5321C10.6958 16.2345 7.64119 10.7 9.17078 9.17038C10.7004 7.64079 16.2349 10.6954 21.5325 15.993Z" fill="white"/>
<path d="M15.9934 15.993C10.6958 21.2906 7.6412 26.8252 9.17079 28.3548C10.7004 29.8843 16.2349 26.8298 21.5325 21.5321C26.8302 16.2345 29.8848 10.7 28.3552 9.17038C26.8256 7.64079 21.291 10.6954 15.9934 15.993Z" fill="white"/>
<path d="M4.46292 4.4624C4.89676 4.02878 5.67836 3.86063 6.86667 4.08468C8.03963 4.30591 9.50725 4.89332 11.1763 5.81447C14.5096 7.65416 18.5654 10.7784 22.5425 14.7555C26.5195 18.7326 29.6438 22.7884 31.4835 26.1217C32.4046 27.7907 32.9921 29.2584 33.2133 30.4313C33.4373 31.6196 33.2692 32.4012 32.8356 32.8351C32.4018 33.2689 31.6197 33.4376 30.4311 33.2135C29.2582 32.9922 27.7906 32.4048 26.1215 31.4837C22.7882 29.644 18.7324 26.5197 14.7553 22.5427C10.7783 18.5656 7.65399 14.5098 5.8143 11.1765C4.89312 9.50739 4.30574 8.03982 4.08451 6.86684C3.86036 5.67822 4.0291 4.89622 4.46292 4.4624Z" stroke="url(#paint0_linear_503_2971)" stroke-width="0.80503"/>
<path d="M32.8349 4.4624C32.4011 4.02878 31.6195 3.86063 30.4312 4.08468C29.2582 4.30591 27.7906 4.89332 26.1216 5.81447C22.7882 7.65416 18.7324 10.7784 14.7554 14.7555C10.7783 18.7326 7.65403 22.7884 5.81434 26.1217C4.89321 27.7907 4.30578 29.2584 4.08455 30.4313C3.86051 31.6196 4.02865 32.4012 4.46227 32.8351C4.89608 33.2689 5.67812 33.4376 6.86671 33.2135C8.03968 32.9922 9.50728 32.4048 11.1763 31.4837C14.5096 29.644 18.5655 26.5197 22.5425 22.5427C26.5196 18.5656 29.6439 14.5098 31.4836 11.1765C32.4047 9.50739 32.9921 8.03982 33.2133 6.86684C33.4375 5.67822 33.2687 4.89622 32.8349 4.4624Z" stroke="url(#paint1_linear_503_2971)" stroke-width="0.80503"/>
<path d="M84.877 8.69899C88.9524 8.69899 91.4996 10.8709 91.875 14.5173H89.1133C88.6843 12.1043 87.2899 11.0047 84.7695 11.0047C82.4103 11.0047 81.0158 11.9968 81.0156 13.659C81.0156 15.0264 81.8207 15.8578 83.8584 16.5281L87.3701 17.6541C90.6412 18.6997 92.1436 20.4431 92.1436 23.1511C92.1434 26.5828 89.6763 28.5397 85.3867 28.5398C80.7214 28.5398 77.8518 26.2339 77.3691 22.1316H80.1309C80.4794 24.8128 82.3302 26.2341 85.4404 26.2341C88.0408 26.234 89.408 25.2422 89.4082 23.4461C89.4082 21.8642 88.5504 21.0056 86.6201 20.3621L83.2686 19.2898C79.8366 18.1905 78.2812 16.5816 78.2812 14.0076C78.2814 10.7903 80.8821 8.699 84.877 8.69899ZM66.6719 8.99391C72.892 8.99405 76.9404 12.7745 76.9404 18.5925C76.9404 24.4108 72.8382 28.2986 66.6982 28.2986H59.8877V12.3181L63.2119 8.99391H66.6719ZM117.447 17.4402L122.863 8.99391H126L118.734 19.8797V28.2986H115.893V19.8797L108.846 9.32301L99.3027 18.2713L109.733 28.2986H105.738L96.3271 18.9148V28.2986H93.4854V11.7019L96.3271 9.05641V17.6814L105.31 8.99391H112.058L117.447 17.4402ZM56.498 21.783H58.8047V24.116H56.498V25.3015L53.5762 28.2234V24.116H44.0576V21.9441L53.6836 8.99391H56.498V21.783ZM62.7305 25.9392H66.6719C71.2834 25.9391 74.0449 22.9359 74.0449 18.5388C74.0448 14.2223 71.3369 11.3534 66.6719 11.3533H62.7305V25.9392ZM47.4629 21.783H53.6836V13.3377L47.4629 21.783Z" fill="white"/>
<defs>
<linearGradient id="paint0_linear_503_2971" x1="5.00098" y1="4.72664" x2="33.1198" y2="33.1197" gradientUnits="userSpaceOnUse">
<stop stop-color="white"/>
<stop offset="0.332545" stop-color="white" stop-opacity="0"/>
<stop offset="0.475962" stop-color="white" stop-opacity="0"/>
<stop offset="0.635103" stop-color="white" stop-opacity="0"/>
<stop offset="1" stop-color="white"/>
</linearGradient>
<linearGradient id="paint1_linear_503_2971" x1="32.2969" y1="4.72664" x2="4.17805" y2="33.1197" gradientUnits="userSpaceOnUse">
<stop stop-color="white"/>
<stop offset="0.328405" stop-color="white" stop-opacity="0"/>
<stop offset="0.475962" stop-color="white" stop-opacity="0"/>
<stop offset="0.633235" stop-color="white" stop-opacity="0"/>
<stop offset="1" stop-color="white"/>
</linearGradient>
</defs>
</svg>
